<?xml version="1.0" encoding="UTF-8"?>
<svg version="1.1" xmlns="http://www.w3.org/2000/svg" width="960" height="192">
<path d="M0 0 C0.70253906 0.03609375 1.40507813 0.0721875 2.12890625 0.109375 C6.392285 0.41562905 8.6245348 1.19972 11.875 3.875 C13.93680456 4.5677227 16.02395687 5.1873984 18.125 5.75 C25.17838062 7.83989055 30.56786263 10.02143536 35.25 15.8125 C39.55003036 23.91640338 41.38079984 33.88868332 38.875 42.875 C31.06836377 60.55040279 14.84357233 73.80547072 -1.125 83.875 C0.36009884 89.16315602 3.80641536 92.21753583 7.625 95.9375 C8.2334375 96.54916016 8.841875 97.16082031 9.46875 97.79101562 C16.28678799 104.7114489 16.28678799 104.7114489 25.25 107.625 C26.44625 107.7075 27.6425 107.79 28.875 107.875 C29.29590019 112.08400191 29.26448433 114.9527306 26.75 118.375 C23.875 120.875 23.875 120.875 21.125 121.0625 C10.88725259 117.3217846 2.98691989 110.81453135 -4.00390625 102.5078125 C-9.71361583 95.78175403 -13.53038071 91.56085861 -22.7265625 90.26953125 C-25.125 89.875 -25.125 89.875 -27.125 87.875 C-27.39054688 88.53886719 -27.65609375 89.20273438 -27.9296875 89.88671875 C-31.125 97.875 -31.125 97.875 -32.1640625 100.2734375 C-33.32431336 103.41460446 -33.96913837 106.52962737 -34.625 109.8125 C-35.52362002 114.30071631 -36.59607479 118.55842237 -38.125 122.875 C-41.49734971 122.59397086 -42.91139739 122.07128348 -45.4375 119.75 C-47.95281251 115.46465275 -47.60536012 111.96773166 -46.52661133 107.26806641 C-45.69205711 104.24515415 -44.79670671 101.24747335 -43.875 98.25 C-43.5550708 97.18491211 -43.2351416 96.11982422 -42.90551758 95.02246094 C-42.27218777 92.91895276 -41.63470029 90.81669104 -40.99267578 88.71582031 C-40.26449353 86.33170982 -39.54780397 83.94485442 -38.83984375 81.5546875 C-36.3872731 73.3670182 -36.3872731 73.3670182 -35.125 70.99902344 C-34.07764264 68.77441187 -33.68233806 66.92212365 -33.30078125 64.5 C-32.02299231 57.71166851 -29.66280235 51.35477319 -27.3125 44.875 C-26.88646484 43.6684375 -26.46042969 42.461875 -26.02148438 41.21875 C-23.49135027 34.17571407 -20.66965196 27.46864137 -17.125 20.875 C-17.805625 20.029375 -18.48625 19.18375 -19.1875 18.3125 C-21.125 14.875 -21.125 14.875 -21.25 11.3125 C-19.48434334 5.91743797 -16.01816678 4.03117421 -11.42578125 1.2265625 C-7.4564916 -0.39873243 -4.17966958 -0.35670649 0 0 Z M-1.125 15.875 C-6.77765249 26.51036778 -11.39895552 37.2346201 -15.33764648 48.61547852 C-16.20219854 51.10482217 -17.09139679 53.58447778 -17.98242188 56.06445312 C-18.54313925 57.6609419 -19.10243975 59.25792918 -19.66015625 60.85546875 C-19.92458023 61.58879929 -20.18900421 62.32212982 -20.46144104 63.0776825 C-21.81261168 67.0457871 -22.44649309 69.83652897 -21.125 73.875 C-16.28653606 75.93134718 -12.10515462 76.69966169 -7.125 74.875 C-2.83671103 72.22405773 1.01791202 69.10698226 4.875 65.875 C5.80828125 65.11832031 6.7415625 64.36164063 7.703125 63.58203125 C16.6834197 55.92312277 27.3800127 45.3099666 28.82421875 33.0234375 C28.84097656 32.31445312 28.85773438 31.60546875 28.875 30.875 C28.9575 30.02292969 29.04 29.17085937 29.125 28.29296875 C29.109288 25.80232439 29.109288 25.80232439 27.36328125 24.21484375 C19.93429825 19.42668415 11.64363223 15.73529044 2.66821289 15.83349609 C1.41645264 15.84719238 0.16469238 15.86088867 -1.125 15.875 Z " fill="#00FF00" transform="translate(904.125,30.125)"/>
<path d="M0 0 C7.77142754 4.2666661 11.39038201 11.09692179 13.875 19.375 C20.67398566 45.83696122 10.89130113 66.96500697 -2.34228516 89.35253906 C-10.79645801 103.2652863 -22.88174301 117.78843298 -39.125 122.375 C-46.87067058 123.19233456 -52.83152635 123.12721479 -59.125 118.375 C-59.66769531 117.98957031 -60.21039062 117.60414063 -60.76953125 117.20703125 C-64.52632896 114.38257749 -66.33761926 111.66781328 -68.125 107.375 C-71.7494064 78.91274977 -60.22151992 43.83411632 -43.390625 20.9921875 C-33.50266686 8.35757432 -16.86899904 -7.48299766 0 0 Z M-28.56640625 25.33203125 C-29.41074219 26.33621094 -30.25507812 27.34039062 -31.125 28.375 C-31.75277344 29.12136719 -32.38054688 29.86773437 -33.02734375 30.63671875 C-47.52093528 49.63184929 -58.37021406 79.98599406 -57.53515625 104.09375 C-56.79792592 108.19415486 -55.37278038 109.74913501 -52.125 112.375 C-47.47640713 113.86605809 -43.81410625 113.55688016 -39.296875 111.6484375 C-34.66671846 108.93363348 -30.94641424 105.10198061 -27.125 101.375 C-26.51785156 100.818125 -25.91070313 100.26125 -25.28515625 99.6875 C-9.97606597 85.27894444 0.74476093 63.91948315 2.03613281 42.73120117 C2.08175386 39.6748563 2.11022462 36.61915607 2.125 33.5625 C2.145625 32.50740234 2.16625 31.45230469 2.1875 30.36523438 C2.21935047 23.97523345 1.679665 19.15207312 -1.125 13.375 C-11.63631596 4.52336551 -21.90359634 17.64435365 -28.56640625 25.33203125 Z " fill="#00FF00" transform="translate(760.125,32.625)"/>
<path d="M0 0 C4.03654111 1.9828623 6.6500056 4.16579861 9 8 C11.79023928 16.37071785 10.64763725 26.48652086 7.26953125 34.49609375 C4.33724421 40.27946603 0.91461237 46.8948285 -5 50 C-8.1875 49.4375 -8.1875 49.4375 -11 48 C-13 45 -13 45 -12.875 42.78515625 C-11.92829998 39.77177627 -10.62913957 37.24031129 -9.1171875 34.47851562 C-5.01418814 26.98265141 -2.73564965 20.72356166 -3 12 C-15.58354045 13.95451152 -24.72359426 25.75711703 -31.92871094 35.41748047 C-41.4597155 48.52329762 -48.97215695 61.19515778 -53 77 C-53.18618896 77.69794678 -53.37237793 78.39589355 -53.56420898 79.11499023 C-55.00573419 84.9253175 -55.33434582 90.46485351 -55.3125 96.4375 C-55.33666992 97.75331055 -55.33666992 97.75331055 -55.36132812 99.09570312 C-55.36592108 105.32833996 -54.7631489 111.32768779 -52 117 C-49.25640155 118.93533704 -47.9592285 119.08837113 -44.66796875 118.78515625 C-32.66915749 115.28943958 -21.70677854 110.37102343 -11.3515625 103.37890625 C-8.1405614 101.49604348 -5.68718806 101.08193751 -2 101 C-2.06579575 104.28978725 -2.15161754 106.96927863 -4.30859375 109.58984375 C-6.1379668 111.18262352 -8.01604918 112.60416218 -10 114 C-10.69738281 114.49371094 -11.39476562 114.98742187 -12.11328125 115.49609375 C-14.38038676 117.04642345 -16.6802754 118.52969837 -19 120 C-19.79535156 120.51820313 -20.59070313 121.03640625 -21.41015625 121.5703125 C-31.34315589 127.83550087 -41.05827124 131.78971645 -53 130 C-58.79243066 127.75658241 -63.2494509 123.80074174 -65.8671875 118.1171875 C-73.9001149 97.99661697 -68.01126955 75.55093783 -60.07470703 56.49902344 C-54.46443843 43.45342838 -46.60449936 32.24848507 -38 21 C-37.32324219 20.09121094 -36.64648438 19.18242188 -35.94921875 18.24609375 C-27.04862437 7.21409318 -14.28491733 -1.3631359 0 0 Z " fill="#00FF00" transform="translate(848,28)"/>
<path d="M0 0 C1.51883789 -0.04350586 1.51883789 -0.04350586 3.06835938 -0.08789062 C9.92898868 -0.14539429 14.93317956 0.96351812 20.9375 4.3125 C20.9375 4.9725 20.9375 5.6325 20.9375 6.3125 C21.67742187 6.39371094 22.41734375 6.47492187 23.1796875 6.55859375 C28.22221545 7.93707519 30.94791551 12.22285196 33.9375 16.3125 C37.983094 23.49275955 37.67107409 31.21119794 35.75390625 39.02734375 C34.23133669 43.28908152 31.64085346 46.72259644 28.9375 50.3125 C28.41027344 51.04339844 27.88304687 51.77429688 27.33984375 52.52734375 C14.68711962 69.54720198 -0.87179351 78.06592074 -21.75 81.5 C-22.72324219 81.63792969 -23.69648438 81.77585937 -24.69921875 81.91796875 C-27.07291824 82.19528009 -27.07291824 82.19528009 -29.0625 83.3125 C-29.98528916 85.64040662 -30.79487649 87.93211873 -31.55859375 90.3125 C-31.79280533 91.02220947 -32.02701691 91.73191895 -32.26832581 92.46313477 C-33.01927242 94.74401074 -33.7597775 97.02812383 -34.5 99.3125 C-34.99475188 100.82184121 -35.49018681 102.3309587 -35.98632812 103.83984375 C-36.93324879 106.72275709 -37.87645487 109.60683554 -38.81591797 112.4921875 C-40.21048316 116.77270043 -41.63158383 121.04400432 -43.0625 125.3125 C-45.93907748 126.19145423 -47.52627442 126.51539616 -50.375 125.4375 C-53.06195598 122.0539258 -52.51318537 118.41736138 -52.0625 114.3125 C-51.00575017 109.92023881 -49.61329253 105.6597779 -48.1875 101.375 C-45.15493099 92.20641433 -45.15493099 92.20641433 -42.9921875 82.80859375 C-42.30802781 79.03831607 -41.18031797 76.54042103 -39.0625 73.3125 C-38.14226898 70.83848326 -37.29762306 68.38759941 -36.5 65.875 C-35.98084638 64.28242893 -35.46128255 62.68999156 -34.94140625 61.09765625 C-34.65023926 60.19934082 -34.35907227 59.30102539 -34.05908203 58.37548828 C-32.25983222 52.8455059 -30.43124453 47.32528959 -28.59841919 41.80636597 C-27.95136807 39.8543373 -27.30842394 37.9009902 -26.66577148 35.94750977 C-24.57533294 29.64151178 -22.40836416 23.44323355 -19.75390625 17.3503418 C-18.85277345 15.08861863 -18.85277345 15.08861863 -19.1875 11.625 C-19.02481228 7.31377529 -17.42401348 5.7695894 -14.5703125 2.6953125 C-10.5632175 -0.9795881 -5.13041211 0.04770997 0 0 Z M-6.0625 17.3125 C-7.73510145 20.22631126 -9.10161517 23.23182873 -10.4375 26.3125 C-10.82180176 27.18028076 -11.20610352 28.04806152 -11.60205078 28.94213867 C-15.10567475 37.04109554 -17.89943918 45.32972055 -20.5546875 53.73828125 C-21.47943705 56.65104659 -22.50516975 59.44183964 -23.74609375 62.234375 C-25.03381765 65.24543267 -25.35557093 67.08871978 -25.0625 70.3125 C-17.65254376 72.78248541 -8.74709844 68.04285137 -2 64.8125 C11.13402851 58.13823746 19.22908518 48.24526208 23.9375 34.3125 C25.16005326 28.69873505 25.0074898 25.04334412 22.1796875 20.0703125 C19.56526846 16.37066291 16.07613348 14.01833676 11.9375 12.3125 C8.83315178 11.88365449 8.83315178 11.88365449 5.5 11.875 C4.38753906 11.83503906 3.27507812 11.79507813 2.12890625 11.75390625 C-2.18101744 12.50827478 -3.38454945 13.87321475 -6.0625 17.3125 Z " fill="#0000FF" transform="translate(391.0625,30.6875)"/>
<path d="M0 0 C2.15207965 0.09712882 4.30377185 0.16595829 6.45703125 0.23120117 C16.97628527 0.62350207 16.97628527 0.62350207 19.26171875 2.90893555 C19.53163781 5.59732939 19.34909232 8.20035491 19.26171875 10.90893555 C15.78516882 11.66282937 12.39295193 12.13023885 8.84765625 12.40893555 C7.83960937 12.49143555 6.8315625 12.57393555 5.79296875 12.65893555 C3.6810382 12.82621717 1.5690585 12.99287935 -0.54296875 13.15893555 C-2.05117187 13.28268555 -2.05117187 13.28268555 -3.58984375 13.40893555 C-4.96390381 13.5172168 -4.96390381 13.5172168 -6.36572266 13.62768555 C-8.88390194 13.8450584 -8.88390194 13.8450584 -11.73828125 14.90893555 C-12.87853543 17.58045622 -13.84401918 20.15675725 -14.73828125 22.90893555 C-14.95997986 23.55859283 -15.18167847 24.20825012 -15.41009521 24.87759399 C-16.09423176 26.88992322 -16.75831723 28.90798398 -17.41796875 30.9284668 C-17.79199074 32.06961189 -17.79199074 32.06961189 -18.17356873 33.23381042 C-18.98955205 35.7287992 -19.80186647 38.22495748 -20.61328125 40.72143555 C-20.89263519 41.57922607 -21.17198914 42.4370166 -21.45980835 43.32080078 C-28.21125152 64.08446101 -34.50346873 84.98537971 -40.73828125 105.90893555 C-39.72725342 105.77036133 -38.71622559 105.63178711 -37.67456055 105.48901367 C-36.32471878 105.30598428 -34.9748646 105.12304645 -33.625 104.94018555 C-32.96141479 104.84898437 -32.29782959 104.7577832 -31.61413574 104.66381836 C-19.1928744 102.9878432 -19.1928744 102.9878432 -14.73828125 103.90893555 C-11.97376127 106.67345553 -10.83086578 108.24241407 -10.61328125 112.15893555 C-12.43046351 114.98566351 -14.49928225 115.08704822 -17.73828125 115.90893555 C-21.567558 116.26305017 -25.39494768 116.37182956 -29.23828125 116.47143555 C-38.06304585 116.55296092 -38.06304585 116.55296092 -46.73828125 117.90893555 C-47.06828125 118.56893555 -47.39828125 119.22893555 -47.73828125 119.90893555 C-53.36328125 120.15893555 -53.36328125 120.15893555 -56.73828125 117.90893555 C-58.6996512 117.59317656 -58.6996512 117.59317656 -60.828125 117.6003418 C-61.61251953 117.57520508 -62.39691406 117.55006836 -63.20507812 117.52416992 C-64.84823018 117.48909869 -66.49146792 117.45782997 -68.13476562 117.43041992 C-75.53552986 117.18150168 -75.53552986 117.18150168 -78.73828125 113.90893555 C-78.48828125 111.53393555 -78.48828125 111.53393555 -77.73828125 108.90893555 C-74.94159992 107.12479231 -72.46294693 106.58559311 -69.19140625 106.27612305 C-68.34707031 106.19233398 -67.50273438 106.10854492 -66.6328125 106.0222168 C-65.76011719 105.94358398 -64.88742188 105.86495117 -63.98828125 105.78393555 C-63.10011719 105.69756836 -62.21195313 105.61120117 -61.296875 105.5222168 C-59.11125189 105.31070488 -56.92519887 105.10653327 -54.73828125 104.90893555 C-39.702583 60.72694177 -39.702583 60.72694177 -26.73828125 15.90893555 C-27.72828125 16.23893555 -28.71828125 16.56893555 -29.73828125 16.90893555 C-32.91265273 17.39288658 -36.10761345 17.69880633 -39.30078125 18.03393555 C-40.17669922 18.13319336 -41.05261719 18.23245117 -41.95507812 18.3347168 C-42.79232422 18.42366211 -43.62957031 18.51260742 -44.4921875 18.60424805 C-45.64182983 18.72823975 -45.64182983 18.72823975 -46.81469727 18.85473633 C-48.73828125 18.90893555 -48.73828125 18.90893555 -50.73828125 17.90893555 C-51.05078125 15.09643555 -51.05078125 15.09643555 -50.73828125 11.90893555 C-46.98140195 9.05399135 -43.01704559 7.99726352 -38.48828125 6.84643555 C-37.82368896 6.6750708 -37.15909668 6.50370605 -36.47436523 6.32714844 C-32.28163885 5.25689314 -28.07314451 4.30835302 -23.83349609 3.4465332 C-21.47870143 2.91537071 -21.47870143 2.91537071 -18.4765625 1.33862305 C-12.53257785 -0.93182602 -6.2446532 -0.28640565 0 0 Z " fill="#FF9900" transform="translate(95.73828125,34.091064453125)"/>
<path d="M0 0 C3.03068577 1.28574548 3.71926542 2.9141506 5.0625 5.875 C4.06966966 13.66088001 0.20540001 20.9186628 -3.3671875 27.8125 C-8.48391321 37.79138795 -11.97832304 47.78351134 -14.84570312 58.59155273 C-16.12633041 63.35937835 -17.65820485 67.4725258 -19.9375 71.875 C-22.83222667 81.09111697 -23.35943329 90.35395757 -23.64697266 99.94165039 C-23.6732373 100.81168701 -23.69950195 101.68172363 -23.7265625 102.578125 C-23.74412598 103.35833008 -23.76168945 104.13853516 -23.77978516 104.94238281 C-23.9375 106.875 -23.9375 106.875 -24.9375 108.875 C-27.1875 109.1875 -27.1875 109.1875 -29.9375 108.875 C-34.3272936 104.24132898 -35.06149269 101.52225391 -35 95.25 C-34.99097656 94.06148438 -34.98195312 92.87296875 -34.97265625 91.6484375 C-34.96105469 90.73320313 -34.94945312 89.81796875 -34.9375 88.875 C-35.7109375 89.58785156 -36.484375 90.30070312 -37.28125 91.03515625 C-39.98208601 93.521316 -42.690589 95.99894925 -45.40283203 98.47265625 C-46.71908439 99.67541691 -48.03000259 100.88401052 -49.33984375 102.09375 C-55.2877597 107.48226502 -59.49750143 109.36463539 -67.625 109.1953125 C-69.9375 108.875 -69.9375 108.875 -72.5 107.125 C-76.1749443 101.37291327 -75.6493914 94.16190431 -74.25390625 87.71875 C-70.1386943 73.37527266 -63.50957949 61.61749913 -50.3671875 54.1015625 C-45.27687164 51.53185321 -41.64769756 50.61958591 -35.875 50.6875 C-34.66714844 50.69394531 -33.45929688 50.70039062 -32.21484375 50.70703125 C-29.5575239 50.84322285 -27.47071599 51.18424819 -24.9375 51.875 C-24.53917969 50.64910156 -24.14085937 49.42320313 -23.73046875 48.16015625 C-19.10235302 34.29747374 -13.97653211 20.39517026 -7.4375 7.3125 C-6.94890503 6.33204712 -6.94890503 6.33204712 -6.45043945 5.33178711 C-3.56724067 -0.23014456 -3.56724067 -0.23014456 0 0 Z M-54.0859375 72.41796875 C-59.39861626 79.46791588 -64.9375 87.7431638 -64.9375 96.875 C-59.08020142 96.53088371 -55.99213808 94.86042177 -51.9375 90.8125 C-51.41696045 90.31081299 -50.8964209 89.80912598 -50.36010742 89.29223633 C-48.86681158 87.8375582 -47.39863305 86.3618961 -45.9375 84.875 C-45.27363281 84.20984375 -44.60976562 83.5446875 -43.92578125 82.859375 C-40.09808757 78.75508807 -37.01187506 74.17824221 -33.9375 69.5 C-33.52669189 68.88020264 -33.11588379 68.26040527 -32.69262695 67.62182617 C-31.70819397 66.07978177 -30.81414252 64.48077307 -29.9375 62.875 C-30.4325 61.885 -30.4325 61.885 -30.9375 60.875 C-41.2695593 59.93572188 -47.62622362 64.65859131 -54.0859375 72.41796875 Z " fill="#FF9900" transform="translate(245.9375,37.125)"/>
<path d="M0 0 C2.8125 0.125 2.8125 0.125 6 1 C8.61662604 4.46069895 9.04304578 6.39916737 8.73266602 10.73144531 C8.12385757 14.92360355 6.85473114 18.79021036 5.33984375 22.734375 C4.94127419 23.80236076 4.94127419 23.80236076 4.53465271 24.891922 C3.67750184 27.1812759 2.80780609 29.46561866 1.9375 31.75 C1.34334023 33.3291304 0.74975566 34.90847734 0.15673828 36.48803711 C-3.28855471 45.6358779 -6.79272503 54.76145587 -10.55102539 63.78613281 C-14.52386533 73.11460436 -14.52386533 73.11460436 -16 83 C-15.56171875 82.52691406 -15.1234375 82.05382812 -14.671875 81.56640625 C-8.96802259 75.61909673 -2.67198744 70.8115294 4 66 C4.7321875 65.45730469 5.464375 64.91460937 6.21875 64.35546875 C12.27318195 59.90443509 17.57757278 58.99696929 25 60 C27.5625 62.25 27.5625 62.25 29 65 C29.35449219 65.62777344 29.70898438 66.25554687 30.07421875 66.90234375 C33.46662968 74.58894574 30.19489917 85.99844303 29 94 C29.94101562 94.14308594 30.88203125 94.28617187 31.8515625 94.43359375 C34.66424051 94.93959662 36.55315717 95.58835991 39 97 C39 99.25 39 99.25 38 102 C34.51672966 104.67688079 31.19718095 105.97652586 26.8125 106.0625 C23.2392998 104.71262437 21.4309218 102.91710616 19 100 C16.26270918 91.78812753 18.37072129 81.52897389 19 73 C4.97325103 75.05391681 -8.78692169 89.69789029 -17 100.58984375 C-19.13715389 103.16528116 -21.24200895 105.10553331 -24 107 C-27.21582454 106.93568351 -29.13260204 106.67765736 -31.68598938 104.68281555 C-33 103 -33 103 -32.89916992 99.13745117 C-31.96354126 92.90904809 -30.29849463 86.86120712 -28.61328125 80.80078125 C-28.26252029 79.53639725 -27.91175934 78.27201324 -27.55036926 76.96931458 C-23.53800414 62.76328714 -18.40107691 48.99199095 -13.1875 35.1875 C-12.23509835 32.64221841 -11.28647376 30.09553485 -10.33789062 27.54882812 C-8.2450377 21.93817231 -6.14104433 16.33184212 -4.02841187 10.72860718 C-2.68116646 7.15406316 -1.34013919 3.57721343 0 0 Z " fill="#0000FF" transform="translate(457,32)"/>
<path d="M0 0 C4.42554852 2.55714641 8.06078417 5.3094115 10.5625 9.8125 C12.39023225 23.12883498 9.57330529 32.92909952 2 44 C-4.92233032 52.99902942 -14.72078622 62.69739743 -26.4765625 64.34765625 C-31.02733441 64.60942632 -33.23661112 64.5847234 -36.9375 61.75 C-37.618125 60.8425 -38.29875 59.935 -39 59 C-39.5775 58.401875 -40.155 57.80375 -40.75 57.1875 C-42.59297696 53.96229032 -42.76651167 50.63366212 -43 47 C-43.061875 46.154375 -43.12375 45.30875 -43.1875 44.4375 C-42.18052719 31.34685344 -33.17469508 17.74577309 -23.84375 8.97265625 C-17.3640341 3.57669565 -8.68748303 -1.73749661 0 0 Z M-18.00390625 20.25390625 C-22.25565977 25.70380557 -25.5214371 31.56798038 -28.5625 37.75 C-28.92150391 38.45874268 -29.28050781 39.16748535 -29.65039062 39.89770508 C-31.87247443 44.63626552 -32.33773409 47.75662015 -31 53 C-29.91526588 54.2916351 -29.91526588 54.2916351 -27.3125 54.3125 C-23.22022339 53.92643617 -21.04964469 52.57071666 -18 50 C-17.30777344 49.43667969 -16.61554687 48.87335938 -15.90234375 48.29296875 C-8.20229339 41.3853764 -1.89888087 31.70267863 -0.50390625 21.30078125 C-0.50056917 18.48095162 -0.61930433 15.79176822 -1 13 C-8.97810594 10.67305243 -12.77581151 14.37357357 -18.00390625 20.25390625 Z " fill="#0000FF" transform="translate(549,81)"/>
<path d="M0 0 C3.35641409 0.53397497 4.79846453 1.82870939 6.7890625 4.5546875 C8.68010305 8.25989703 8.61897592 11.41774743 7.75 15.4375 C6.00287544 19.90852769 3.96146122 24.17912081 1.75 28.4375 C7.04949914 25.08940522 12.33374233 21.73874448 17.5 18.1875 C22.09689642 15.1310965 26.12879487 12.49099398 31.8125 12.375 C36.47214957 14.06040516 39.46274891 16.72780706 41.60546875 21.23828125 C43.32735059 27.18975203 42.59700721 33.25385248 41.85717773 39.3215332 C41.32585381 44.73730867 42.49337437 47.18891369 45.75 51.4375 C46 54.3125 46 54.3125 45.75 56.4375 C42.89675563 57.86412219 40.91545451 57.74783868 37.75 57.4375 C34.33619909 55.49784039 33.02117769 54.14817258 31.6171875 50.46875 C30.31925813 45.53391438 30.53497261 40.56577211 30.625 35.5 C30.63402344 34.52998047 30.64304688 33.55996094 30.65234375 32.56054688 C30.67573893 30.18593593 30.70851824 27.81185224 30.75 25.4375 C25.35425574 28.03412748 20.33122595 30.83284925 15.375 34.1875 C14.72942139 34.62215576 14.08384277 35.05681152 13.41870117 35.50463867 C6.09855747 40.48707375 -0.79250823 45.3963102 -6.25 52.4375 C-7.56494512 53.78897138 -8.89264858 55.12862542 -10.25 56.4375 C-14.70904831 55.03608482 -17.33381745 53.09781189 -20.25 49.4375 C-20.22265625 46.16796875 -20.22265625 46.16796875 -19.3125 42.625 C-19.03535156 41.46355469 -18.75820312 40.30210938 -18.47265625 39.10546875 C-17.33685516 35.69806547 -15.97700976 32.7353678 -14.3269043 29.56420898 C-12.39749659 25.75394588 -10.77743132 21.81130504 -9.125 17.875 C-8.77824219 17.06353516 -8.43148437 16.25207031 -8.07421875 15.41601562 C-6.54434829 11.78477137 -5.11931051 8.21156215 -4.0703125 4.41015625 C-3.01510067 0.58626957 -3.01510067 0.58626957 0 0 Z " fill="#FF9900" transform="translate(115.25,82.5625)"/>
<path d="M0 0 C2.91263947 1.30302292 3.97540468 2.18555406 5.375 5.0625 C4.98860609 10.07103987 3.12072946 14.05872015 0.8125 18.4375 C0.48314453 19.07816406 0.15378906 19.71882813 -0.18554688 20.37890625 C-0.99139482 21.94388632 -1.80718493 23.50374021 -2.625 25.0625 C-2.109375 24.90265625 -1.59375 24.7428125 -1.0625 24.578125 C2.11035733 23.90694364 5.13306118 23.85371109 8.375 23.8125 C9.591875 23.78671875 10.80875 23.7609375 12.0625 23.734375 C15.58458271 24.08326055 16.94853139 24.53615254 19.375 27.0625 C20.1875 30.1875 20.1875 30.1875 20.375 33.0625 C18.40513608 35.03236392 14.70139745 34.47590882 12 34.625 C10.92202148 34.68868774 10.92202148 34.68868774 9.82226562 34.75366211 C4.00376745 35.07611902 -1.79787175 35.1736105 -7.625 35.0625 C-15.22192436 56.57703975 -15.22192436 56.57703975 -13.61328125 78.42578125 C-13.12408203 79.23595703 -13.12408203 79.23595703 -12.625 80.0625 C-8.11100591 79.74572848 -4.80615392 79.41151775 -0.9375 77 C2.3227455 75.09306395 3.711378 74.61842461 7.375 75.0625 C7.94048707 78.2938547 7.83363836 80.35659574 6.02734375 83.13671875 C2.10682725 87.79825595 -1.4939236 91.38426358 -7.71875 92.40625 C-12.89624992 92.76087328 -16.40050465 91.59427078 -20.80078125 88.9375 C-25.36584741 84.24535491 -27.12170158 78.81491702 -27.23046875 72.36230469 C-27.20919922 71.16202637 -27.20919922 71.16202637 -27.1875 69.9375 C-27.18234375 69.0909082 -27.1771875 68.24431641 -27.171875 67.37207031 C-26.88427979 56.99972217 -24.31469514 47.03726304 -21.625 37.0625 C-22.69041016 36.97162109 -22.69041016 36.97162109 -23.77734375 36.87890625 C-24.69644531 36.79511719 -25.61554687 36.71132812 -26.5625 36.625 C-27.47902344 36.54378906 -28.39554688 36.46257812 -29.33984375 36.37890625 C-31.625 36.0625 -31.625 36.0625 -32.625 35.0625 C-32.66580783 33.06291636 -32.66754356 31.06204746 -32.625 29.0625 C-31.64917969 28.79695313 -30.67335938 28.53140625 -29.66796875 28.2578125 C-28.38273414 27.90132407 -27.09758216 27.54453761 -25.8125 27.1875 C-24.54792969 26.83945313 -23.28335938 26.49140625 -21.98046875 26.1328125 C-17.52913449 24.72952567 -17.52913449 24.72952567 -14.62939453 21.26245117 C-14.34177246 20.55064697 -14.05415039 19.83884277 -13.7578125 19.10546875 C-13.42910156 18.32236328 -13.10039063 17.53925781 -12.76171875 16.73242188 C-12.09244727 15.0902519 -11.42573804 13.44703511 -10.76171875 11.80273438 C-5.85181672 0.13932897 -5.85181672 0.13932897 0 0 Z " fill="#0000FF" transform="translate(604.625,55.9375)"/>
<path d="M0 0 C2.5 1.625 2.5 1.625 4 4 C4.3125 7.1875 4.3125 7.1875 4 10 C3.67 10.33 3.34 10.66 3 11 C3.58007812 10.86722656 4.16015625 10.73445313 4.7578125 10.59765625 C7.16924262 10.05249796 9.5842933 9.52584123 12 9 C13.6396875 8.62875 13.6396875 8.62875 15.3125 8.25 C18.37566194 7.9650547 19.58467917 8.10224792 22 10 C23.25 12.625 23.25 12.625 24 15 C22.71283353 16.00578589 21.42011342 17.00446798 20.125 18 C19.40570312 18.556875 18.68640625 19.11375 17.9453125 19.6875 C16 21 16 21 14 21 C14.3403125 22.423125 14.3403125 22.423125 14.6875 23.875 C15.6391347 30.91993746 12.96322802 37.11203697 8.8125 42.6875 C1.42327418 51.45254401 -7.02480512 58.23378123 -18.5625 60.3125 C-23.3277137 60.59041431 -25.53722727 59.33741774 -29.125 56.25 C-32.59472139 52.81732189 -33.91697246 50.69902701 -34.16015625 45.72265625 C-33.51314222 30.68352529 -25.47134652 14.63755837 -15 4 C-10.29913356 0.04137563 -5.96308952 -0.78204453 0 0 Z M-9 16 C-16.49149912 24.57754484 -24.69712686 37.14884344 -24 49 C-22.36219078 50.33257379 -22.36219078 50.33257379 -20 51 C-12.26212835 48.05373722 -6.25698212 42.84397634 -1.25 36.375 C-0.83218262 35.83738037 -0.41436523 35.29976074 0.01611328 34.74584961 C2.56121455 31.22819063 3.6117742 28.30930641 4 24 C3.39671875 23.67386719 2.7934375 23.34773438 2.171875 23.01171875 C1.37265625 22.57472656 0.5734375 22.13773438 -0.25 21.6875 C-1.03890625 21.25824219 -1.8278125 20.82898438 -2.640625 20.38671875 C-4.89727134 19.0603786 -6.93998597 17.61115776 -9 16 Z " fill="#0000FF" transform="translate(664,82)"/>
<path d="M0 0 C3.7305803 2.53648242 6.39364582 5.32801036 7.4921875 9.83203125 C6.56149811 13.46171988 4.78643263 14.99900726 1.8671875 17.26953125 C-0.6328125 18.01953125 -0.6328125 18.01953125 -3.1328125 17.26953125 C-5.08869483 15.10466423 -6.63504766 12.76793047 -8.1328125 10.26953125 C-13.23902413 10.96268215 -15.63580341 14.52233274 -18.875 18.2265625 C-23.64531557 24.65575943 -28.32948722 33.27237308 -28.1953125 41.45703125 C-28.1746875 42.71515625 -28.1540625 43.97328125 -28.1328125 45.26953125 C-18.57802463 45.85187724 -9.49314708 44.14725315 -0.6328125 40.51953125 C2.87964639 39.26508165 4.39673056 39.07656168 7.8671875 40.26953125 C8.6171875 42.01953125 8.6171875 42.01953125 8.8671875 44.26953125 C6.73494776 47.11251756 4.23419014 48.69408648 1.1796875 50.39453125 C-2.17342969 51.88569498 -2.17342969 51.88569498 -3.1328125 54.26953125 C-5.43243336 55.09211104 -7.65187329 55.77888164 -10.0078125 56.39453125 C-10.68384521 56.57121338 -11.35987793 56.74789551 -12.05639648 56.92993164 C-19.07580247 58.65552524 -25.62205278 59.48233915 -32.5703125 57.08203125 C-36.39445462 54.37715024 -38.64940836 51.71974366 -40.1328125 47.26953125 C-41.4553855 33.8053045 -37.32305264 21.53135315 -30.1328125 10.26953125 C-29.60816406 9.43164062 -29.08351563 8.59375 -28.54296875 7.73046875 C-21.78209362 -2.03700733 -10.77955687 -5.93504785 0 0 Z " fill="#FF9900" transform="translate(320.1328125,85.73046875)"/>
<path d="M0 0 C2.375 1.3125 2.375 1.3125 4.375 4.3125 C4.66241092 10.62841431 2.48285105 16.4764176 0.1875 22.25 C-1.76602636 27.30220593 -3.67264117 32.33742541 -5.28125 37.51171875 C-5.54010986 38.33873291 -5.79896973 39.16574707 -6.06567383 40.01782227 C-6.55528497 41.60413674 -7.03217253 43.19444672 -7.49487305 44.78881836 C-8.16796875 46.9453125 -8.16796875 46.9453125 -9.625 50.3125 C-11.71606445 51.02294922 -11.71606445 51.02294922 -13.625 51.3125 C-15.97660344 49.10787178 -17.47482819 47.31480954 -17.9609375 44.0703125 C-18.12577355 33.48783789 -14.63301581 23.78635187 -11.25 13.875 C-10.86328125 12.69228516 -10.4765625 11.50957031 -10.078125 10.29101562 C-9.69398438 9.16501953 -9.30984375 8.03902344 -8.9140625 6.87890625 C-8.57068848 5.85740479 -8.22731445 4.83590332 -7.87353516 3.78344727 C-6.625 1.3125 -6.625 1.3125 -4.64599609 -0.07836914 C-2.625 -0.6875 -2.625 -0.6875 0 0 Z " fill="#FF9900" transform="translate(260.625,93.6875)"/>
<path d="M0 0 C2.67893219 1.72217069 3.04117507 3.12352522 4.0625 6.1875 C3.97554567 11.49171421 1.60595389 14.26526205 -2 18 C-5 20 -5 20 -7.5 19.875 C-10.58109958 18.79661515 -11.48428997 17.87187163 -13 15 C-13.4375 12.5625 -13.4375 12.5625 -13 10 C-11.71937515 8.2925002 -10.38232443 6.62626404 -9 5 C-8.32033324 3.33859237 -7.65061095 1.67299959 -7 0 C-4.26634878 -1.36682561 -2.89333621 -0.84683011 0 0 Z " fill="#FF9900" transform="translate(273,53)"/>
</svg>
